<svg width="40" height="41" viewBox="0 0 40 41" fill="none" xmlns="http://www.w3.org/2000/svg">
<path d="M16.7071 15.2071C17.0976 14.8166 17.0976 14.1834 16.7071 13.7929C16.3166 13.4024 15.6834 13.4024 15.2929 13.7929L9.29289 19.7929C8.90237 20.1834 8.90237 20.8166 9.29289 21.2071L15.2929 27.2071C15.6834 27.5976 16.3166 27.5976 16.7071 27.2071C17.0976 26.8166 17.0976 26.1834 16.7071 25.7929L12.4142 21.5H29.9892C30.5476 21.5 31.0002 21.0523 31.0002 20.5C31.0002 19.9477 30.5476 19.5 29.9892 19.5H12.4142L16.7071 15.2071Z" fill="#18191F"/>
<rect x="0.5" y="1" width="39" height="39" rx="19.5" stroke="#939393"/>
</svg>
