<svg width="24" height="27" viewBox="0 0 24 27" fill="none" xmlns="http://www.w3.org/2000/svg">
<path d="M12.954 13.068L15.911 9.74141L6.36 3.70241C5.727 3.31766 5.134 3.26366 4.614 3.68441L12.954 13.068ZM16.415 16.9628L19.489 15.0177C20.089 14.6397 20.418 14.1042 20.418 13.5102C20.418 12.9173 20.089 12.3807 19.49 12.0027L16.707 10.2443L13.574 13.7678L16.415 16.9628ZM4.1 4.50229C4.036 4.72391 4 4.97141 4 5.24254V21.7857C4 22.2143 4.084 22.5833 4.236 22.8769L12.333 13.7667L4.1 4.50229ZM12.954 14.4642L4.902 23.5238C5.056 23.5902 5.222 23.625 5.397 23.625C5.709 23.625 6.034 23.5215 6.365 23.3145L15.62 17.4679L12.954 14.4642Z" fill="white"/>
</svg>
