<svg width="40" height="40" viewBox="0 0 40 40" fill="none" xmlns="http://www.w3.org/2000/svg">
<path d="M23.2931 14.7071C22.9026 14.3166 22.9026 13.6834 23.2931 13.2929C23.6837 12.9024 24.3168 12.9024 24.7074 13.2929L30.7073 19.2929C31.0979 19.6834 31.0979 20.3166 30.7073 20.7071L24.7074 26.7071C24.3168 27.0976 23.6837 27.0976 23.2931 26.7071C22.9026 26.3166 22.9026 25.6834 23.2931 25.2929L27.586 21H10.011C9.45265 21 9 20.5523 9 20C9 19.4477 9.45265 19 10.011 19H27.586L23.2931 14.7071Z" fill="#18191F"/>
<rect x="0.5" y="0.5" width="39" height="39" rx="19.5" stroke="#939393"/>
</svg>
